<?xml version="1.0" encoding="UTF-8" standalone="no"?>
<!-- Created with Inkscape (http://www.inkscape.org/) -->

<svg
   width="210mm"
   height="297mm"
   viewBox="0 0 210 297"
   version="1.1"
   id="svg1"
   xml:space="preserve"
   inkscape:version="1.4.2 (f4327f4, 2025-05-13)"
   sodipodi:docname="cages.svg"
   xmlns:inkscape="http://www.inkscape.org/namespaces/inkscape"
   xmlns:sodipodi="http://sodipodi.sourceforge.net/DTD/sodipodi-0.dtd"
   xmlns="http://www.w3.org/2000/svg"
   xmlns:svg="http://www.w3.org/2000/svg"><sodipodi:namedview
     id="namedview1"
     pagecolor="#ffffff"
     bordercolor="#000000"
     borderopacity="0.25"
     inkscape:showpageshadow="2"
     inkscape:pageopacity="0.0"
     inkscape:pagecheckerboard="0"
     inkscape:deskcolor="#d1d1d1"
     inkscape:document-units="mm"
     inkscape:zoom="6.307239"
     inkscape:cx="162.90805"
     inkscape:cy="674.70093"
     inkscape:window-width="1920"
     inkscape:window-height="1129"
     inkscape:window-x="-8"
     inkscape:window-y="-8"
     inkscape:window-maximized="1"
     inkscape:current-layer="layer1" /><defs
     id="defs1"><clipPath
       clipPathUnits="userSpaceOnUse"
       id="clipPath5"><path
         id="path5"
         style="stroke-width:0.1;stroke-linecap:square;paint-order:markers fill stroke;stop-color:#000000"
         d="m 438.25066,553.76374 859.87054,0 v 201.39554 l -859.87054,0 z"
         sodipodi:nodetypes="ccccc" /></clipPath><linearGradient
       id="swatch41"
       inkscape:swatch="solid"><stop
         style="stop-color:#fff48d;stop-opacity:1;"
         offset="0"
         id="stop41" /></linearGradient></defs><g
     inkscape:label="Réteg 1"
     inkscape:groupmode="layer"
     id="layer1"><path
       style="opacity:1;fill:#00ffff;fill-opacity:1;stroke:#000000;stroke-width:0.79375;stroke-linecap:round;stroke-linejoin:round;paint-order:stroke markers fill;stroke-opacity:1;stroke-dasharray:none"
       d="m 49.248305,19.002966 -4.991949,-0.04195 -3.272033,4.069067 1.468218,1.00678 -1.300422,1.552119 2.307204,1.803813 z"
       id="path1" /><ellipse
       style="opacity:1;fill:#00ffff;fill-opacity:1;stroke:#000000;stroke-width:1.25141;stroke-linecap:round;stroke-linejoin:round;stroke-dasharray:none;stroke-opacity:1;paint-order:stroke markers fill"
       id="ellipse2"
       cx="38.875122"
       cy="33.873943"
       rx="3.2844713"
       ry="1.539133" /><path
       style="opacity:1;fill:#00ffff;fill-opacity:1;stroke:#000000;stroke-width:0.79375;stroke-linecap:round;stroke-linejoin:round;paint-order:stroke markers fill;stroke-opacity:1;stroke-dasharray:none"
       d="m 52.268643,26.847458 2.055508,1.929659 1.132629,-0.167796 2.600846,2.139408 c 0,0 1.048729,3.607625 -0.797034,4.194916 0,0 -6.250422,4.824152 -5.998727,7.131355 l -1.384322,3.691526 -3.859322,-0.797034 0.0839,-6.46017 c 0,0 2.768644,-1.384322 0.419491,-5.117796 0,0 -0.0839,-3.313983 0.92288,-3.691526 0,0 1.761862,-2.516949 4.824151,-2.852542 z"
       id="path3" /><path
       style="opacity:1;fill:#00ffff;fill-opacity:1;stroke:#000000;stroke-width:0.79375;stroke-linecap:round;stroke-linejoin:round;paint-order:stroke markers fill;stroke-opacity:1;stroke-dasharray:none"
       d="m 38.970762,47.360593 -2.013559,0.04195 -0.0839,-8.138136 1.384324,-1.090679 h 3.691525 l 0.167796,4.194916 -1.300425,1.761863 h -1.971609 z"
       id="path4" /><path
       style="opacity:1;fill:#00ffff;fill-opacity:1;stroke:#000000;stroke-width:0.79375;stroke-linecap:round;stroke-linejoin:round;paint-order:stroke markers fill;stroke-opacity:1;stroke-dasharray:none"
       d="m 42.662287,49.500001 0.0839,7.676695 -0.797033,0.755084 -10.906782,-0.0839 -0.125846,-6.711862 4.194916,-0.0839 1.636016,-1.719916 1.636017,0.0839 0.04195,-1.636017 2.307203,-0.04195 z"
       id="path6" /><path
       style="opacity:1;fill:#00ffff;fill-opacity:1;stroke:#000000;stroke-width:0.79375;stroke-linecap:round;stroke-linejoin:round;paint-order:stroke markers fill;stroke-opacity:1;stroke-dasharray:none"
       d="m 53.86271,45.263135 4.236866,4.194916 c 0,0 -3.397883,1.300422 -2.726696,7.257203 0,0 -0.335592,3.02034 -2.307202,3.355933 l -7.173305,-0.293644 -0.04195,-7.718644 c 0,0 0.838984,-2.684746 3.146187,-3.062289 z"
       id="path7" /><path
       style="opacity:1;fill:#00ffff;fill-opacity:1;stroke:#000000;stroke-width:0.79375;stroke-linecap:round;stroke-linejoin:round;paint-order:stroke markers fill;stroke-opacity:1;stroke-dasharray:none"
       d="m 60.36483,56.589405 c 0,0 -1.342372,1.174578 -1.887712,-0.335592 -0.545338,-1.51017 1.719916,-2.600849 1.719916,-2.600849 0,0 2.768644,-0.797033 3.439829,0.545341 0.671187,1.342371 -1.845763,1.468221 -1.845763,1.468221 0,0 -1.677966,0.125846 -1.42627,0.922879 z"
       id="path8" /><path
       style="opacity:1;fill:#00ffff;fill-opacity:1;stroke:#000000;stroke-width:0.79375;stroke-linecap:round;stroke-linejoin:round;paint-order:stroke markers fill;stroke-opacity:1;stroke-dasharray:none"
       d="m 83.185168,69.132203 8.347882,4.782204 c 0,0 0.880933,1.594066 2.43305,1.258474 1.55212,-0.335595 1.174578,-2.600849 1.174578,-2.600849 0,0 3.062288,-2.097457 1.677967,-4.488558 -1.384324,-2.391103 -4.278816,-0.503391 -5.663137,-1.048729 L 86.625,64.895339 Z"
       id="path9" /><path
       style="opacity:1;fill:#00ffff;fill-opacity:1;stroke:#000000;stroke-width:0.79375;stroke-linecap:round;stroke-linejoin:round;paint-order:stroke markers fill;stroke-opacity:1;stroke-dasharray:none"
       d="m 42.704236,60.784321 -0.209745,12.500848 -12.962287,1.971609 -1.636017,-1.594067 0.461439,-12.83644 z"
       id="path10" /><path
       style="opacity:1;fill:#00ffff;fill-opacity:1;stroke:#000000;stroke-width:0.79375;stroke-linecap:round;stroke-linejoin:round;paint-order:stroke markers fill;stroke-opacity:1;stroke-dasharray:none"
       d="m 40.637666,79.139631 c 0,0 -8.602133,-4.212079 -17.026292,-1.245828 l -1.483126,4.686682 0.296625,4.568029 2.847603,1.542452 -3.856129,5.635881 0.2373,2.135702 4.56803,3.381528 c 0,0 3.559503,-0.59325 4.68668,-2.728953 l 2.669627,-0.177975 0.11865,-2.728953 4.21208,-0.296625 2.135702,-3.381528 z"
       id="path11" /><path
       style="opacity:1;fill:#00ffff;fill-opacity:1;stroke:#000000;stroke-width:0.79375;stroke-linecap:round;stroke-linejoin:round;paint-order:stroke markers fill;stroke-opacity:1;stroke-dasharray:none"
       d="m 30.671055,99.962725 9.25471,8.305505 1.601777,7.53429 -15.721141,21.65364 -5.339255,-3.5595 c 0,0 -5.220606,-1.30515 -6.585082,1.12718 l -8.958084,-5.81386 -0.9492009,1.6611 -1.898402,-0.9492 -2.96625301,0.83055 -3.32220339,-0.59325 -2.6103027,-4.15275 6.05115621,-8.66146 3.20355329,0.29663 1.008526,-2.07638 -1.008526,-2.25435 5.3392555,-7.23766 z"
       id="path12" /><path
       style="opacity:1;fill:#00ffff;fill-opacity:1;stroke:#000000;stroke-width:0.79375;stroke-linecap:round;stroke-linejoin:round;paint-order:stroke markers fill;stroke-opacity:1;stroke-dasharray:none"
       d="m 32.213507,138.04939 c 0.711901,-4.80532 10.619187,-2.6103 10.619187,-2.6103 l 2.076376,1.60178 2.906929,0.11865 -0.711901,12.75489 1.30515,0.17797 v 7.17833 l -7.712257,-0.0593 v -4.33073 l -11.865012,-7.71226 -0.177975,-2.55098 -1.779751,-1.54245 2.25435,-3.26288 1.72043,1.1865 z"
       id="path13" /><path
       style="opacity:1;fill:#00ffff;fill-opacity:1;stroke:#000000;stroke-width:0.79375;stroke-linecap:round;stroke-linejoin:round;paint-order:stroke markers fill;stroke-opacity:1;stroke-dasharray:none"
       d="m 27.645479,147.2448 -2.669629,3.3222 7.415632,6.58508 5.813856,2.31368 0.533927,-2.55098 -1.661102,-4.09343 z"
       id="path14" /><path
       style="opacity:1;fill:#00ffff;fill-opacity:1;stroke:#000000;stroke-width:0.79375;stroke-linecap:round;stroke-linejoin:round;paint-order:stroke markers fill;stroke-opacity:1;stroke-dasharray:none"
       d="m 17.085617,174.0004 c 0,0 7.534283,8.60213 8.661459,8.12754 1.127177,-0.47461 5.279931,-3.55951 5.279931,-3.55951 0,0 2.788277,-7.35631 -0.296627,-10.14459 -3.084901,-2.78827 -10.203909,1.18651 -10.203909,1.18651 z"
       id="path15" /><path
       style="opacity:1;fill:#00ffff;fill-opacity:1;stroke:#000000;stroke-width:0.79375;stroke-linecap:round;stroke-linejoin:round;paint-order:stroke markers fill;stroke-opacity:1;stroke-dasharray:none"
       d="m 122.20962,144.04124 2.43233,-8.0682 12.69557,-7.11901 7.53428,7.53428 v 2.43233 l -6.58508,7.59361 -5.57656,2.90693 z"
       id="path16" /><path
       style="opacity:1;fill:#ff6600;fill-opacity:1;stroke:#000000;stroke-width:0.79375;stroke-linecap:round;stroke-linejoin:round;paint-order:stroke markers fill;stroke-opacity:1;stroke-dasharray:none"
       d="m 108.92081,83.411035 3.61883,3.974777 -6.08082,4.09343 -2.96625,-5.012968 z"
       id="path17" /><path
       style="opacity:1;fill:#ff6600;fill-opacity:1;stroke:#000000;stroke-width:0.79375;stroke-linecap:round;stroke-linejoin:round;paint-order:stroke markers fill;stroke-opacity:1;stroke-dasharray:none"
       d="m 101.0899,85.428086 -5.101952,2.076379 3.203551,7.267318 5.635881,-3.262879 z"
       id="path18" /><path
       style="opacity:1;fill:#ff6600;fill-opacity:1;stroke:#000000;stroke-width:0.79375;stroke-linecap:round;stroke-linejoin:round;paint-order:stroke markers fill;stroke-opacity:1;stroke-dasharray:none"
       d="m 100.64496,80.77107 0.86022,1.809414 3.20355,-0.207639 c 0,0 1.86874,-3.322201 -1.09751,-4.241742 -2.96626,-0.919538 -2.96626,2.639967 -2.96626,2.639967 z"
       id="path19" /><path
       style="opacity:1;fill:#ff6600;fill-opacity:1;stroke:#000000;stroke-width:0.79375;stroke-linecap:round;stroke-linejoin:round;paint-order:stroke markers fill;stroke-opacity:1;stroke-dasharray:none"
       d="m 81.12702,71.723998 -3.114567,0.148312 -3.945115,5.665544 0.860214,3.203554 13.822738,10.441209 3.173891,-0.177974 1.334812,-1.572115 -0.682236,-1.542452 1.453462,-2.046713 0.11865,-5.428245 -1.06785,-2.847601 -4.508704,-1.39414 -1.720427,0.800888 -0.741563,-2.491653 z"
       id="path20" /><path
       style="opacity:1;fill:#ff6600;fill-opacity:1;stroke:#000000;stroke-width:0.79375;stroke-linecap:round;stroke-linejoin:round;paint-order:stroke markers fill;stroke-opacity:1;stroke-dasharray:none"
       d="m 48.468573,62.73625 c 0,0 6.55542,0.177975 8.750448,-1.512789 0,0 1.601777,-0.830549 3.826467,2.135704 l 6.585081,5.784193 -2.432327,3.974779 3.915454,3.203554 -2.22469,3.648491 -7.207995,5.309593 c 0,0 -7.237657,-0.860214 -8.839434,0.919538 C 49.2398,87.979065 46.095572,86.377288 46.06591,84.360236 46.036247,82.343184 45.858272,65.64318 45.858272,65.64318 Z"
       id="path21" /><path
       style="opacity:1;fill:#ff6600;fill-opacity:1;stroke:#000000;stroke-width:0.79375;stroke-linecap:round;stroke-linejoin:round;paint-order:stroke markers fill;stroke-opacity:1;stroke-dasharray:none"
       d="m 58.183475,87.54788 -6.795765,-0.251695 0.922883,3.523728 0.125846,4.866103 1.636017,1.803813 0.125849,1.803815 3.313983,-0.713136 0.587288,-2.936441 L 59.4,94.763134 59.3161,92.49788 58.602966,91.994491 58.980507,88.470763 Z"
       id="path22" /><path
       style="opacity:1;fill:#ff6600;fill-opacity:1;stroke:#000000;stroke-width:0.79375;stroke-linecap:round;stroke-linejoin:round;paint-order:stroke markers fill;stroke-opacity:1;stroke-dasharray:none"
       d="m 50.087289,88.093221 -4.446612,-0.209746 -0.713134,1.090676 -0.0839,2.642799 0.713137,1.300421 -1.048729,1.00678 0.377542,11.074579 0.88093,0.88093 8.096186,-2.72669 -0.92288,-5.453395 -1.55212,-1.258475 -0.251692,-5.495338 z"
       id="path23" /><path
       style="opacity:1;fill:#ff6600;fill-opacity:1;stroke:#000000;stroke-width:0.79375;stroke-linecap:round;stroke-linejoin:round;paint-order:stroke markers fill;stroke-opacity:1;stroke-dasharray:none"
       d="m 62.380301,100.22969 -0.919538,0.9492 h -2.550978 l -0.830551,-0.9492 0.02966,-1.957729 0.889876,-1.156838 2.550977,0.05933 0.889876,1.127176 z"
       id="path24" /><path
       style="opacity:1;fill:#ff6600;fill-opacity:1;stroke:#000000;stroke-width:0.79375;stroke-linecap:round;stroke-linejoin:round;paint-order:stroke markers fill;stroke-opacity:1;stroke-dasharray:none"
       d="m 66.681368,106.19186 10.856486,-2.6103 3.144226,8.63179 -9.165719,1.77975 -4.212079,-4.65702 z"
       id="path25" /><path
       style="opacity:1;fill:#ff6600;fill-opacity:1;stroke:#000000;stroke-width:0.79375;stroke-linecap:round;stroke-linejoin:round;paint-order:stroke markers fill;stroke-opacity:1;stroke-dasharray:none"
       d="m 66.384743,105.45029 10.856484,-2.55097 -2.521315,-8.661461 -3.322204,-4.983305 -3.381528,-2.758617 -2.313675,2.135703 1.305149,2.432328 0.533927,2.58064 -0.622914,0.711901 c 0,0 1.572115,3.76714 -1.661102,4.923978 z"
       id="path26" /><path
       style="opacity:1;fill:#ff6600;fill-opacity:1;stroke:#000000;stroke-width:0.79375;stroke-linecap:round;stroke-linejoin:round;paint-order:stroke markers fill;stroke-opacity:1;stroke-dasharray:none"
       d="m 63.893091,103.81886 c -3.02558,-1.45347 -2.610303,1.36447 -2.610303,1.36447 l 1.038188,1.83908 c 0,0 2.699291,1.45346 2.432328,-1.45346 z"
       id="path27" /><path
       style="opacity:1;fill:#ff6600;fill-opacity:1;stroke:#000000;stroke-width:0.79375;stroke-linecap:round;stroke-linejoin:round;paint-order:stroke markers fill;stroke-opacity:1;stroke-dasharray:none"
       d="m 66.325416,109.69204 4.390056,4.80533 -1.631439,2.19502 -3.97478,-0.11865 -2.224691,-3.14423 z"
       id="path28" /><path
       style="opacity:1;fill:#ff6600;fill-opacity:1;stroke:#000000;stroke-width:0.79375;stroke-linecap:round;stroke-linejoin:round;paint-order:stroke markers fill;stroke-opacity:1;stroke-dasharray:none"
       d="m 68.639094,118.05687 c 0,0 2.34334,4.83499 -2.284013,3.85613 l -6.31812,-3.82647 -0.05933,-1.03819 2.10604,-0.7119 2.728953,1.24583 z"
       id="path29" /><path
       style="opacity:1;fill:#ff6600;fill-opacity:1;stroke:#000000;stroke-width:0.79375;stroke-linecap:round;stroke-linejoin:round;paint-order:stroke markers fill;stroke-opacity:1;stroke-dasharray:none"
       d="m 48.498236,107.91228 c 0,0 -2.521316,0.94921 -2.165364,2.25436 0.35595,1.30515 3.173892,-0.14832 3.173892,-0.14832 z"
       id="path30" /><path
       style="opacity:1;fill:#ff6600;fill-opacity:1;stroke:#000000;stroke-width:0.79375;stroke-linecap:round;stroke-linejoin:round;paint-order:stroke markers fill;stroke-opacity:1;stroke-dasharray:none"
       d="m 52.53234,107.28937 3.025579,-0.17797 2.847602,3.7968 0.148312,2.8476 -7.030018,2.28402 -1.453465,-6.22913 2.995917,-1.15684 z"
       id="path31" /><path
       style="opacity:1;fill:#ffff00;fill-opacity:1;stroke:#000000;stroke-width:0.79375;stroke-linecap:round;stroke-linejoin:round;paint-order:stroke markers fill;stroke-opacity:1;stroke-dasharray:none"
       d="m 48.438911,125.26486 0.148314,2.81795 -1.305152,0.88987 1.453465,1.63144 -0.266965,5.42824 -3.144226,-0.089 -1.661102,-1.42381 -3.529843,-0.26696 v -8.12753 l 1.720429,-2.04672 5.012965,-0.14831 z"
       id="path32" /><path
       style="opacity:1;fill:#ffff00;fill-opacity:1;stroke:#000000;stroke-width:0.79375;stroke-linecap:round;stroke-linejoin:round;paint-order:stroke markers fill;stroke-opacity:1;stroke-dasharray:none"
       d="m 59.176747,114.4677 -9.521671,3.14423 c 0,0 2.521315,3.64849 1.572114,9.52167 l -0.02966,2.25436 5.368918,0.089 c 0,0 3.173891,-0.91954 2.847603,-10.7675 z"
       id="path33" /><path
       style="opacity:1;fill:#ffff00;fill-opacity:1;stroke:#000000;stroke-width:0.79375;stroke-linecap:round;stroke-linejoin:round;paint-order:stroke markers fill;stroke-opacity:1;stroke-dasharray:none"
       d="m 56.536782,130.18884 1.216163,0.9492 v 7.208 l -1.275487,1.57212 -4.330729,0.14831 -1.216166,-1.06786 -0.02966,-7.08934 z"
       id="path34" /><path
       style="opacity:1;fill:#ffff00;fill-opacity:1;stroke:#000000;stroke-width:0.79375;stroke-linecap:round;stroke-linejoin:round;paint-order:stroke markers fill;stroke-opacity:1;stroke-dasharray:none"
       d="m 136.68494,128.23112 -12.36928,7.17833 -2.69929,8.33517 -8.63179,-4.41972 2.90692,-4.56803 4.44938,-5.54689 10.47088,-6.64441 z"
       id="path35" /><path
       style="opacity:1;fill:#000080;fill-opacity:1;stroke:#000000;stroke-width:0.79375;stroke-linecap:round;stroke-linejoin:round;paint-order:stroke markers fill;stroke-opacity:1;stroke-dasharray:none"
       d="m 130.29407,121.84131 0.31461,-8.28495 -6.56504,0.37754 -5.39046,1.48919 -7.55085,8.43178 -2.51695,5.45339 c 0,0 -2.18135,8.26399 0.88093,8.59958 l 3.02034,1.21653 2.91547,-4.82416 5.30657,-6.71186 z"
       id="path36" /><path
       style="opacity:1;fill:#000080;fill-opacity:1;stroke:#000000;stroke-width:0.79375;stroke-linecap:round;stroke-linejoin:round;paint-order:stroke markers fill;stroke-opacity:1;stroke-dasharray:none"
       d="m 191.70762,106.21525 -9.60635,-4.95 -3.10424,4.99195 0.37755,7.04746 6.29237,2.89449 z"
       id="path37" /><path
       style="opacity:1;fill:#000080;fill-opacity:1;stroke:#000000;stroke-width:0.79375;stroke-linecap:round;stroke-linejoin:round;paint-order:stroke markers fill;stroke-opacity:1;stroke-dasharray:none"
       d="m 99.725426,144.6345 13.882064,7.8309 -8.48348,14.35667 -13.822743,-8.36484 z"
       id="path38" /><path
       style="opacity:1;fill:#000080;fill-opacity:1;stroke:#000000;stroke-width:0.79375;stroke-linecap:round;stroke-linejoin:round;paint-order:stroke markers fill;stroke-opacity:1;stroke-dasharray:none"
       d="m 92.225895,160.88113 -1.839077,0.17798 -4.508703,8.12753 0.593248,2.1357 10.915812,4.56803 3.262875,-7.05968 0.17798,-1.30515 -2.669629,-0.41527 1.186502,-2.31368 z"
       id="path39" /><path
       style="opacity:1;fill:#000080;fill-opacity:1;stroke:#000000;stroke-width:0.79375;stroke-linecap:round;stroke-linejoin:round;paint-order:stroke markers fill;stroke-opacity:1;stroke-dasharray:none"
       d="m 117.49466,168.86342 3.74843,0.76134 -0.91648,5.54311 -3.91491,-0.96791 z"
       id="path40" /><path
       style="opacity:1;fill:#000080;fill-opacity:1;stroke:#000000;stroke-width:0.79375;stroke-linecap:round;stroke-linejoin:round;paint-order:stroke markers fill;stroke-opacity:1;stroke-dasharray:none"
       d="m 128.61673,170.08495 -3.61883,6.52575 -1.54245,-1.12717 3.85613,-6.16981 z"
       id="path41" /><path
       style="opacity:1;fill:#000080;fill-opacity:1;stroke:#000000;stroke-width:0.79375;stroke-linecap:round;stroke-linejoin:round;paint-order:stroke markers fill;stroke-opacity:1;stroke-dasharray:none"
       d="m 111.05651,163.91514 0.65258,1.00853 1.72042,0.11865 1.30516,-1.1865 -0.77123,-1.89841 -1.72043,0.0593 z"
       id="path42" /><path
       style="opacity:1;fill:#000080;fill-opacity:1;stroke:#000000;stroke-width:0.79375;stroke-linecap:round;stroke-linejoin:round;paint-order:stroke markers fill;stroke-opacity:1;stroke-dasharray:none"
       d="m 111.09548,172.91816 2.25435,0.88988 -2.66963,6.05115 -2.25435,-1.06785 z"
       id="path43" /><path
       style="opacity:1;fill:#000080;fill-opacity:1;stroke:#000000;stroke-width:0.79375;stroke-linecap:round;stroke-linejoin:round;paint-order:stroke markers fill;stroke-opacity:1;stroke-dasharray:none"
       d="m 108.98014,183.96701 2.78827,-0.29663 1.6611,0.71191 1.18651,1.83907 -0.29663,3.55951 -1.8984,2.55098 -3.26288,0.77122 -3.97478,-1.60178 -0.29662,-2.78827 -1.42381,-0.88988 -3.0849,1.1865 -2.72895,-1.83908 -0.593251,-1.6611 1.305149,-1.8984 2.491652,0.11865 1.48313,-2.6103 1.24583,-0.35595 z"
       id="path44" /><path
       style="opacity:1;fill:#000080;fill-opacity:1;stroke:#000000;stroke-width:0.79375;stroke-linecap:round;stroke-linejoin:round;paint-order:stroke markers fill;stroke-opacity:1;stroke-dasharray:none"
       d="m 91.360592,179.69561 -5.932506,-2.90693 -4.746006,2.49165 -2.906926,5.39858 5.220604,2.90693 5.042631,-0.9492 z"
       id="path45" /><path
       style="opacity:1;fill:#000080;fill-opacity:1;stroke:#000000;stroke-width:0.716538;stroke-linecap:round;stroke-linejoin:round;paint-order:stroke markers fill;stroke-opacity:1;stroke-dasharray:none"
       d="m 73.563074,169.05954 -0.869524,-2.57937 -6.291271,-2.97188 -2.915466,1.28969 -1.994793,8.74742 3.068914,3.25224 2.915466,1.17754 2.659721,-1.68219 z"
       id="path46" /><path
       style="opacity:1;fill:#000080;fill-opacity:1;stroke:#000000;stroke-width:0.79375;stroke-linecap:round;stroke-linejoin:round;paint-order:stroke markers fill;stroke-opacity:1;stroke-dasharray:none"
       d="m 68.579769,184.02634 -8.186859,13.58544 -6.46643,-2.78828 5.813856,-11.09379 c 0,0 -6.347782,-4.15275 -3.678155,-9.37336 0,0 -0.118649,-1.00852 2.432329,-0.77122 l 4.093429,3.7968 3.796804,1.36448 c 0,0 2.966251,0.53393 2.195026,5.27993 z"
       id="path47" /><path
       style="opacity:1;fill:#000080;fill-opacity:1;stroke:#000000;stroke-width:0.79375;stroke-linecap:round;stroke-linejoin:round;stroke-dasharray:none;stroke-opacity:1;paint-order:stroke markers fill"
       d="m 47.570338,178.24195 0.377542,7.00551 -4.99195,-2.18136 -0.04195,-5.45339 z"
       id="path48" /><path
       style="opacity:1;fill:#008000;fill-opacity:1;stroke:#000000;stroke-width:0.79375;stroke-linecap:round;stroke-linejoin:round;paint-order:stroke markers fill;stroke-opacity:1;stroke-dasharray:none"
       d="m 27.938135,241.16568 -2.726695,4.53051 -2.475,0.46144 -2.894491,7.13135 c 0,0 -2.726695,-1.21652 -7.676695,6.20848 0,0 -8.2220337,0.83899 -11.36822007,-3.98517 C -2.3491526,250.68814 12.123305,252.45 7.6766949,245.3606 l 2.181356,-2.01356 c 0,0 1.9716101,0.67119 3.8593221,-0.50339 1.887711,-1.17458 4.44661,2.2233 5.91483,1.63602 0,0 1.426271,-1.71992 3.565678,-1.04873 0,0 1.048729,0.54534 2.475,-2.475"
       id="path49" /><path
       style="opacity:1;fill:#008000;fill-opacity:1;stroke:#000000;stroke-width:0.79375;stroke-linecap:round;stroke-linejoin:round;paint-order:stroke markers fill;stroke-opacity:1;stroke-dasharray:none"
       d="m 6.9635593,245.94788 c -1.2165253,-1.09068 -0.5872879,-3.94322 -0.5872879,-3.94322 0,0 -3.2720341,-0.1678 -2.6427968,-2.93644 l -15.5211876,-4.65636 h -2.181356 l -1.552118,1.59407 c 0,0 -1.803814,1.71992 0.671186,1.67797 0,0 0,1.46822 2.013559,2.55889 0,0 4.6563572,2.60085 4.8661032,5.66314 0.209746,3.06229 12.8783897,5.0339 13.3398304,4.11102 0,0 -0.6292375,-2.85254 1.5940677,-4.06907 z"
       id="path50" /><path
       style="opacity:1;fill:#008000;fill-opacity:1;stroke:#000000;stroke-width:0.79375;stroke-linecap:round;stroke-linejoin:round;paint-order:stroke markers fill;stroke-opacity:1;stroke-dasharray:none"
       d="m -29.322458,232.9017 0.755087,-0.75509 11.242371,2.3072 c 0,0 -2.516949,2.475 -1.677966,4.86611 0.838983,2.3911 -1.048729,3.27203 -1.048729,3.27203 l -0.503389,2.3911 -1.342373,-0.20975 -0.713136,-1.51016 -2.349153,-0.37755 -1.594067,-2.34915 -2.726695,-0.16779 z"
       id="path51" /><path
       style="opacity:1;fill:#008000;fill-opacity:1;stroke:#000000;stroke-width:0.79375;stroke-linecap:round;stroke-linejoin:round;paint-order:stroke markers fill;stroke-opacity:1;stroke-dasharray:none"
       d="m 8.2220339,236.25763 c 0,0 3.2720341,-7.5089 8.8093221,-9.22882 5.537288,-1.71991 5.537288,-10.02585 5.537288,-10.02585 0,0 3.230085,-10.99067 -7.383051,-12.1233 l -3.985169,1.00678 -2.3911019,-3.18813 -8.38983054,0.62923 c 0,0 1.04872874,3.43983 0.041949,4.53051 l 1.25847474,1.30043 c 0,0 -1.76186444,2.97839 -3.6076271,1.80381 -1.8457628,-1.17458 -3.6495763,2.3072 -3.6495763,2.3072 l 2.0135593,2.76865 -1.6360169,0.92288 -1.4262712,-1.51017 -1.7199152,0.58729 -4.1949149,4.6983 1.132627,1.34237 -0.167797,1.38433 -2.391102,0.25169 -0.293644,2.13941 1.51017,0.20974 c 0,0 2.475,6.08263 7.8864405,6.62797 0,0 5.57923726,2.76864 8.3059322,2.34915 0,0 4.4466101,0.5034 4.7402542,1.21653 z"
       id="path52" /><path
       style="opacity:1;fill:#008000;fill-opacity:1;stroke:#000000;stroke-width:0.79375;stroke-linecap:round;stroke-linejoin:round;paint-order:stroke markers fill;stroke-opacity:1;stroke-dasharray:none"
       d="m -10.361441,201.64957 c 0,0 4.4046614,-5.49533 7.7605936,1.04873 3.35593213,6.54407 -5.3275424,5.74704 -5.3275424,5.74704 l -3.9012712,-0.1678 z"
       id="path53" /><path
       style="opacity:1;fill:#008000;fill-opacity:1;stroke:#000000;stroke-width:0.79375;stroke-linecap:round;stroke-linejoin:round;paint-order:stroke markers fill;stroke-opacity:1;stroke-dasharray:none"
       d="m -23.533474,191.95932 2.600847,-0.12585 c 0,0 3.104237,1.71992 1.048729,4.27882 -2.055509,2.5589 -5.033898,-0.58729 -5.033898,-0.58729 z"
       id="path54" /><path
       style="opacity:1;fill:#008000;fill-opacity:1;stroke:#000000;stroke-width:0.79375;stroke-linecap:round;stroke-linejoin:round;stroke-dasharray:none;stroke-opacity:1;paint-order:stroke markers fill"
       d="m -6.8745715,180.834 -0.3775425,1.30042 -2.1394067,-0.37754 -2.8944923,1.38432 0.335593,3.69153 4.950001,3.48178 6.62796591,-6.33433 -3.43983041,-2.3911 -0.797034,-1.92966 z"
       id="path55" /><path
       style="opacity:1;fill:#008000;fill-opacity:1;stroke:#000000;stroke-width:0.79375;stroke-linecap:round;stroke-linejoin:round;paint-order:stroke markers fill;stroke-opacity:1;stroke-dasharray:none"
       d="m -1.1326271,180.21356 c 0,0 -2.9783898,-3.81738 2.05550844,-2.6428 5.03389826,1.17458 -0.25169489,7.71864 -2.05550844,2.6428 z"
       id="path56" /><path
       style="opacity:1;fill:#008000;fill-opacity:1;stroke:#000000;stroke-width:0.79375;stroke-linecap:round;stroke-linejoin:round;stroke-dasharray:none;stroke-opacity:1;paint-order:stroke markers fill"
       d="m 3.6034109,172.58302 -2.3911016,2.22331 4.7822033,4.32076 2.475,-2.3072 z"
       id="path57" /><path
       style="opacity:1;fill:#008000;fill-opacity:1;stroke:#000000;stroke-width:0.79375;stroke-linecap:round;stroke-linejoin:round;paint-order:stroke markers fill;stroke-opacity:1;stroke-dasharray:none"
       d="m -0.62923729,192.92415 c 0,0 -2.55889821,6.29237 -4.02711871,-0.0839 -1.4682202,-6.37627 7.0055085,-2.1394 4.02711871,0.0839 z"
       id="path58" /><path
       style="opacity:1;fill:#008000;fill-opacity:1;stroke:#000000;stroke-width:0.79375;stroke-linecap:round;stroke-linejoin:round;paint-order:stroke markers fill;stroke-opacity:1;stroke-dasharray:none"
       d="m -2.7686442,196.28008 h 8.4317797 l 0.1258475,4.78221 -7.7605932,0.96483 c 0,0 -0.4614406,-2.01356 -1.5940677,-2.18136 z"
       id="path59" /><path
       style="opacity:1;fill:#008000;fill-opacity:1;stroke:#000000;stroke-width:0.79375;stroke-linecap:round;stroke-linejoin:round;paint-order:stroke markers fill;stroke-opacity:1;stroke-dasharray:none"
       d="m 8.5576271,195.98644 h 2.3911019 c 0,0 -0.377543,-1.09068 0.880932,-1.34237 l 2.013559,-0.0419 1.00678,-1.67797 c 0,0 -2.349152,-3.64957 -4.530508,-2.3911 -2.1813564,1.25848 -1.2165259,0.0839 -1.7199157,1.71992 -0.5033898,1.63601 -0.041949,3.73347 -0.041949,3.73347 z"
       id="path60" /><path
       style="opacity:1;fill:#008000;fill-opacity:1;stroke:#000000;stroke-width:0.79375;stroke-linecap:round;stroke-linejoin:round;paint-order:stroke markers fill;stroke-opacity:1;stroke-dasharray:none"
       d="m 3.062288,188.85508 2.1813559,-0.12584 c 0,0 2.0974577,-2.30721 0.3355933,-3.77543 -1.7618644,-1.46822 -2.3911017,0.54534 -2.3911017,0.54534 z"
       id="path61" /><path
       style="opacity:1;fill:#008000;fill-opacity:1;stroke:#000000;stroke-width:0.79375;stroke-linecap:round;stroke-linejoin:round;paint-order:stroke markers fill;stroke-opacity:1;stroke-dasharray:none"
       d="m 20.051695,230.80424 c 0,0 3.104237,-0.2517 3.313983,2.51695 0.209746,2.76864 4.320764,2.89449 4.320764,2.89449 0,0 2.810591,-1.09068 2.139404,-3.60763 -0.671184,-2.51695 -1.342371,-2.68475 -1.342371,-2.68475 l 1.132626,-4.06906 -3.355932,-3.48178 c 0,0 -2.223305,-1.21653 -3.188135,1.76186 -0.964831,2.97839 -3.523729,4.19492 -3.523729,4.19492 0,0 -2.349153,2.68474 0.50339,2.475 z"
       id="path62" /><path
       style="opacity:1;fill:#008000;fill-opacity:1;stroke:#000000;stroke-width:0.79375;stroke-linecap:round;stroke-linejoin:round;paint-order:stroke markers fill;stroke-opacity:1;stroke-dasharray:none"
       d="m 28.063983,214.44407 2.768643,-0.042 0.167798,2.18135 0.880931,-0.0839 c 0,0 -0.545338,-2.09745 0.797036,-2.1394 1.342371,-0.042 2.768642,0.67118 3.90127,3.77542 1.132626,3.10424 -3.94322,1.84576 -4.027119,3.73348 l -2.223305,3.18818 -3.188135,-3.52372 1.300424,-3.52373 z"
       id="path63" /><path
       style="opacity:1;fill:#008000;fill-opacity:1;stroke:#000000;stroke-width:0.79375;stroke-linecap:round;stroke-linejoin:round;paint-order:stroke markers fill;stroke-opacity:1;stroke-dasharray:none"
       d="m 17.283051,198 -0.167797,2.2233 4.194915,0.79704 0.167797,-2.34915 z"
       id="path64" /><path
       style="opacity:1;fill:#008000;fill-opacity:1;stroke:#000000;stroke-width:0.79375;stroke-linecap:round;stroke-linejoin:round;paint-order:stroke markers fill;stroke-opacity:1;stroke-dasharray:none"
       d="m 26.103026,199.92545 0.177976,2.01705 2.254352,-0.0593 -0.118649,-2.01705 z"
       id="path65" /><path
       style="opacity:1;fill:#008000;fill-opacity:1;stroke:#000000;stroke-width:0.79375;stroke-linecap:round;stroke-linejoin:round;paint-order:stroke markers fill;stroke-opacity:1;stroke-dasharray:none"
       d="m 34.942459,204.01888 0.11865,2.66963 1.483127,0.0593 -0.118649,-2.90692 z"
       id="path66" /><path
       style="opacity:1;fill:#008000;fill-opacity:1;stroke:#000000;stroke-width:0.79375;stroke-linecap:round;stroke-linejoin:round;paint-order:stroke markers fill;stroke-opacity:1;stroke-dasharray:none"
       d="m 30.035592,188.47754 -0.209746,10.40339 2.265254,-0.0839 -0.251692,-3.39788 h -0.755087 l 0.419492,-6.08263 z"
       id="path67" /><path
       style="opacity:1;fill:#008000;fill-opacity:1;stroke:#000000;stroke-width:0.79375;stroke-linecap:round;stroke-linejoin:round;paint-order:stroke markers fill;stroke-opacity:1;stroke-dasharray:none"
       d="m 32.510592,191.03644 0.209746,3.56568 4.656357,0.29364 -0.209746,-1.34237 h -1.174575 l -0.167799,-1.04873 -1.426271,0.0419 -0.0839,-1.59407 z"
       id="path68" /><path
       style="opacity:1;fill:#008000;fill-opacity:1;stroke:#000000;stroke-width:0.79375;stroke-linecap:round;stroke-linejoin:round;paint-order:stroke markers fill;stroke-opacity:1;stroke-dasharray:none"
       d="m 32.972033,195.86059 v 2.89449 h 4.488561 l -0.251695,-2.93644 z"
       id="path69" /><path
       style="opacity:1;fill:#008000;fill-opacity:1;stroke:#000000;stroke-width:0.79375;stroke-linecap:round;stroke-linejoin:round;paint-order:stroke markers fill;stroke-opacity:1;stroke-dasharray:none"
       d="m 39.558049,195.4411 1.132629,-0.0839 2.810592,1.84576 -0.167796,2.22331 -3.817372,-0.41949 z"
       id="path70" /><path
       style="opacity:1;fill:#00ffff;fill-opacity:1;stroke:#000000;stroke-width:0.50668702;stroke-linecap:round;stroke-linejoin:round;paint-order:stroke markers fill;stroke-opacity:1;stroke-dasharray:none"
       d="m 23.874786,166.30733 c 0,0 -1.936241,-7.15689 -2.657791,-7.03087 -0.721556,0.12604 -3.707558,1.49826 -3.707558,1.49826 0,0 -3.300627,4.51187 -2.32791,6.94367 0.97271,2.43182 5.769504,0.97188 5.769504,0.97188 z"
       id="path71" /><path
       style="fill:#00ffff;stroke-width:0.79375;stroke-linecap:round;stroke-linejoin:round;paint-order:stroke markers fill;stroke:#000000;stroke-opacity:1;stroke-dasharray:none"
       d="m 3.9432204,132.22373 11.5779656,7.04746 -9.9838979,11.41017 -9.8999999,-7.71865 z"
       id="path72" /></g></svg>
